<?xml version="1.0" encoding="utf-8"?><svg xmlns="http://www.w3.org/2000/svg" xmlns:xlink="http://www.w3.org/1999/xlink"><symbol viewBox="14.5 -5.1 195 195" id="advantages-item1"><circle fill="#D5EDED" cx="80.3" cy="89.1" r="65.3"/><path fill="#5EC6CC" d="M117.4 29.6c-10.1 0-18.3 8.2-18.3 18.3 0 1.7 1.3 3.1 3 3.1s3.1-1.3 3.1-3v-.1c0-6.8 5.4-12.2 12.2-12.2 6.5 0 11.6 4.9 12.1 11.3l-11.4 14.3c-.4.5-.7 1.2-.7 1.9v13.4l-83.8 44.9c-1 .5-1.6 1.6-1.6 2.7v15.3c0 1.7 1.4 3.1 3.1 3.1h39.7v3.1c0 1.7 1.3 3.1 3 3.1s3.1-1.3 3.1-3v-3.2h79.3v3.1c0 1.7 1.3 3.1 3 3.1s3.1-1.3 3.1-3v-3.2H206c1.7 0 3.1-1.4 3.1-3.1v-15.3c0-1.1-.6-2.2-1.6-2.7l-83.8-44.9V64.2l11.5-14.4c.4-.5.7-1.2.7-1.9-.2-10.1-8.4-18.3-18.5-18.3zm0 9.1c-5 0-9.2 4.1-9.2 9.2 0 .8.7 1.5 1.5 1.5s1.5-.7 1.5-1.5c0-3.4 2.7-6.1 6.1-6.1.8 0 1.5-.7 1.5-1.5.2-.8-.5-1.5-1.4-1.6.1 0 .1 0 0 0zm3.1 43.2l82.4 44.1v10.4h-36.6v-3.1c0-1.7-1.3-3.1-3-3.1h-.1c-1.7 0-3 1.4-3 3.1v3.1H80.8v-3.1c0-1.7-1.3-3.1-3-3.1h-.1c-1.7 0-3 1.4-3 3.1v3.1H38.1V126l82.4-44.1zm0 5.4c-.8 0-1.5.7-1.5 1.5 0 .6.3 1.1.8 1.4l76.3 40.9c.7.4 1.7.1 2.1-.6.4-.7.1-1.7-.6-2.1l-76.3-40.9c-.3-.2-.6-.2-.8-.2z"/></symbol><symbol viewBox="384.5 32.5 195 195" id="advantages-item2"><circle fill="#D5EDED" cx="462.8" cy="130" r="65.3"/><path fill="#5EC6CC" d="M497 187.4l64.1-78.6-20-27.9h-88.3l-20 27.9 64.2 78.6zm68.5-77.2l-66.8 81.9-.3.3c-.9.7-2.3.6-3-.3l-66.8-81.9c-.6-.7-.7-1.8-.1-2.6l21.5-30c.4-.6 1.1-1 1.9-1h90.6c.7 0 1.3.3 1.8.9l21.5 30.1-.3 2.6z"/><path fill="#5EC6CC" d="M512.1 106.7c1.2 0 2.2 1 2.2 2.2 0 1.2-1 2.2-2.2 2.2h-81.9c-1.2 0-2.2-1-2.2-2.2 0-1.2 1-2.2 2.2-2.2h81.9zm51.4 0c1.2 0 2.2 1 2.2 2.2 0 1.2-1 2.2-2.2 2.2h-8.3c-1.2 0-2.2-1-2.2-2.2 0-1.2 1-2.2 2.2-2.2h8.3z"/><path fill="#5EC6CC" d="M449.7 79.5c-.4-1.1.1-2.4 1.2-2.8 1.1-.4 2.4.1 2.8 1.2L499 190c.4 1.1-.1 2.4-1.2 2.8-1.1.4-2.4-.1-2.8-1.2L449.7 79.5z"/><path fill="#5EC6CC" d="M520.3 127.5c.4-1.1 1.7-1.6 2.8-1.2 1.1.4 1.6 1.7 1.2 2.8L499 191.6c-.4 1.1-1.7 1.6-2.8 1.2-1.1-.4-1.6-1.7-1.2-2.8l25.3-62.5zm20-49.6c.4-1.1 1.7-1.6 2.8-1.2 1.1.4 1.6 1.7 1.2 2.8l-3.5 8.6c-.4 1.1-1.7 1.6-2.8 1.2-1.1-.4-1.6-1.7-1.2-2.8l3.5-8.6zm-74.2 32.5c-.9.8-2.2.8-3-.1-.8-.9-.8-2.2.1-3l32.3-30.2c.9-.8 2.2-.8 3 .1.8.9.8 2.2-.1 3l-32.3 30.2z"/><path fill="#5EC6CC" d="M520 97.2c.9.8.9 2.2.1 3-.8.9-2.2.9-3 .1l-21.5-20.1c-.9-.8-.9-2.2-.1-3 .8-.9 2.2-.9 3-.1L520 97.2zm15.6-2.2l4 8 8 4c1.1.5 1.5 1.8 1 2.9-.2.4-.6.8-1 1l-8 4-4 8c-.5 1.1-1.8 1.5-2.9 1-.4-.2-.7-.6-1-1l-4-8-8-4c-1.1-.5-1.5-1.8-1-2.9.2-.4.6-.7 1-1l8-4 4-8c.5-1.1 1.8-1.5 2.9-1 .5.2.8.6 1 1zm.5 10.5l-2.4-4.8-2.4 4.8c-.2.4-.5.7-1 1l-4.8 2.4 4.8 2.4c.4.2.7.5 1 1l2.4 4.8 2.4-4.8c.2-.4.5-.7 1-1l4.8-2.4-4.8-2.4c-.5-.3-.8-.6-1-1z"/></symbol><symbol viewBox="132.8 32.2 195 195" id="advantages-item3"><circle fill="#D5EDED" cx="207.8" cy="132.7" r="65.3"/><path fill="#5EC6CC" d="M309.4 145.2c-1.6-1.6-3.6-3.5-6-6.3v-23.6c0-.3 0-6.2-3.3-12.2-3-5.6-9.5-12.3-23-12.3h-26.2l-1.6-3.3c1.9-1.3 3.2-3.5 3.2-6 0-3.9-3.2-7.1-7.1-7.1-2 0-3.7.8-5 2.1-1.3-1.3-3.1-2.1-5-2.1-3.9 0-7.1 3.2-7.1 7.1 0 2.5 1.3 4.7 3.2 6l-1.6 3.3h-26.2c-13.6 0-20 6.7-23 12.3-3.2 6-3.3 12-3.3 12.2v23.6c-2.4 2.8-4.4 4.7-6 6.3-4.5 4.5-6.6 6.5-6.6 15.7 0 6.9 1.3 15.7 11.2 23 7 5.1 17.5 8.8 31.4 10.9.3.1 14.8 2.2 33 2.2s32.8-2 33-2.2c13.9-2.1 24.4-5.7 31.4-10.9 10-7.3 11.2-16.2 11.2-23-.1-9.2-2.1-11.2-6.6-15.7zm-64.1-66.6c1.6 0 2.9 1.3 2.9 2.9 0 1.6-1.3 2.9-2.9 2.9-1.6 0-2.9-1.3-2.9-2.9 0-1.6 1.3-2.9 2.9-2.9zm-5 8c1.2 1.2 2.9 2 4.8 2.1l1.1 2.1h-11.7l1.1-2.1c1.8-.1 3.5-.9 4.7-2.1zm-5-8c1.6 0 2.9 1.3 2.9 2.9 0 1.6-1.3 2.9-2.9 2.9s-2.9-1.3-2.9-2.9c-.1-1.6 1.3-2.9 2.9-2.9zm-53.9 36.7c0-.8.3-20.3 22.1-20.3H277c21.8 0 22.1 19.5 22.1 20.3v17.5c-1.7-3.6-2.4-7.4-3.4-12.8l-.2-1.3c-1.8-9.9-8.1-14.6-13.1-16.8-5.3-2.3-10.1-2.4-10.3-2.4h-63.6c-.2 0-5 0-10.3 2.4-5 2.2-11.3 6.9-13.1 16.8l-.2 1.3c-1 5.4-1.7 9.2-3.4 12.8l-.1-17.5zm-12.5 45.6c0-7.5 1.1-8.6 5.3-12.7 1.8-1.7 4-3.9 6.7-7.2 5.5-6.5 6.5-12 8.1-20.3l.2-1.3c2.9-15.5 18.7-15.8 19.3-15.8h6.9c.1 5.3-.3 20.7-6.2 36.7-1 2.6-1.9 5-2.7 7.3-6.9 18.3-11 29.2-3 42.3-34.6-6.4-34.6-22.1-34.6-29zm40.3 30c-9.7-12.9-6.3-22.1 1.2-41.8.9-2.3 1.8-4.7 2.7-7.3 6.2-16.7 6.6-32.4 6.5-38.1H261c-.1 5.7.3 21.4 6.5 38.1 1 2.6 1.9 5 2.7 7.3 7.4 19.7 10.9 28.9 1.2 41.8-8.9 1.3-19.3 1.9-31.1 1.9-12.4 0-22.6-.7-31.1-1.9zm93-10.3c-5.7 4.2-14.1 7.3-25.1 9.4 8.1-13.1 3.9-24-3-42.3-.9-2.3-1.8-4.7-2.7-7.3-5.9-16-6.3-31.4-6.2-36.7h6.9s4.1 0 8.6 2c5.9 2.6 9.5 7.2 10.7 13.8l.2 1.3c1.5 8.3 2.5 13.8 8.1 20.3 2.7 3.2 4.9 5.4 6.7 7.2 4.2 4.1 5.3 5.3 5.3 12.7 0 6.2-1.1 13.4-9.5 19.6z"/></symbol><symbol viewBox="132.8 32.2 195 195" id="advantages-item4"><circle fill="#D5EDED" cx="211.6" cy="126.4" r="65.3"/><g fill="#5EC6CC"><path d="M263.2 87.3c-.4 0-.7-.1-1.1-.3-.3-.2-8.6-5.5-16.9 0-.7.4-1.6.4-2.2 0-7.3-5.3-17.5.1-17.6.2-.5.3-1 .3-1.6.1-.5-.2-.9-.6-1.1-1.1-3.7-9.4-1.3-10.8-.5-11.3s1.9-.6 3.6-.8c4.6-.5 9.2-1.3 10.4-5.3 1.2-3.8 2.8-6.2 4.9-7.1 1-.5 2-.5 2.8-.3.7-.2 1.7-.2 2.8.3 2.1.9 3.7 3.3 4.9 7.1 1.2 4 5.9 4.8 10.4 5.3 1.7.2 2.8.3 3.6.8.8.5 3.2 1.9-.5 11.3-.2.5-.7 1-1.2 1.1-.3-.1-.5 0-.7 0zm-27.9-6.6c2.9 0 6 .6 8.9 2.4 7.4-4.2 14.5-2.1 17.9-.5.6-1.9 1-3.6 1-4.5-.5-.1-1.1-.2-1.7-.2-4.1-.4-11.6-1.2-13.8-8-1.2-4-2.6-4.8-2.9-4.8-.3.1-.6.1-.9.1-.3 0-.6 0-.9-.1-.3 0-1.7.8-2.9 4.8-2.1 6.8-9.7 7.6-13.8 8-.5 0-1.2.1-1.7.2 0 .9.5 2.7 1.1 4.6 2.2-.9 5.8-2 9.7-2z"/><path d="M242.5 195.6c-4.6 0-8.8-.2-12.6-.5-18-1.4-32.2-5.6-36.9-9.1-.6-.5-.9-1.2-.7-2 7.8-33.2 22-52.2 31.4-64.8 6.9-9.3 9.9-13.6 7.3-16.8-3.8-4.7-5.5-8.9-4.9-12.5.5-3.3 2.8-4.9 3.1-5 .5-.3 1-.4 1.6-.2 13.9 4.2 16.8 2.9 20.3 1.6 1.5-.6 3.2-1.3 5.7-1.6.6-.1 1.2.1 1.6.5 5 4.7 2.3 9.4-.8 14.9-.3.5-.6 1.1-.9 1.7-.1.3 0 2 3.3 8.4 2.4 4.6 6 10.6 9.8 17 12 20 26.8 44.9 25 58.4-.1.7-.6 1.3-1.2 1.6-18.8 6.5-36.7 8.4-51.1 8.4zm-46.1-12c9.9 5.6 52.3 15 94.4.2.6-12.6-13.9-36.9-24.6-54.8-11.3-18.9-15.1-25.8-13.2-29.2.3-.6.7-1.2 1-1.7 3.1-5.5 3.9-7.5 2.2-9.5-1.5.3-2.6.7-3.8 1.2-3.9 1.6-7.5 3.1-21.8-1.1-.3.4-.7 1-.8 1.9-.2 1.7.3 4.7 4.1 9.3 4.7 5.7 0 12.1-7.1 21.6-9.1 12.3-22.8 30.6-30.4 62.1z"/><path d="M189.9 181.3c-.3 0-.7-.1-1.1-.3-.3-.2-8.2-5.5-11.9-11-.3-.5-.4-1.1-.2-1.7 6.2-17.7 48.2-57.5 50-59.3.8-.7 2-.7 2.8.1.7.8.7 2-.1 2.8-.4.4-41.6 39.4-48.7 56.8 3.5 4.6 10.2 9.1 10.2 9.1.9.6 1.1 1.8.5 2.7-.2.5-.8.8-1.5.8zm110.2 0c-.6 0-1.2-.3-1.6-.9-.6-.9-.3-2.1.5-2.7.1 0 6.8-4.5 10.2-9.1-7.1-17.3-48.3-56.4-48.7-56.8-.8-.7-.8-2-.1-2.8s2-.8 2.8-.1c1.8 1.7 43.8 41.5 50 59.3.2.6.1 1.2-.2 1.7-3.7 5.5-11.6 10.7-11.9 11-.3.3-.6.4-1 .4z"/></g></symbol><symbol viewBox="0 0 139.4 44.7" id="dorohovdesign"><path d="M52.2 19.5V8.1H57c3.6 0 6.1 2.1 6.1 5.7 0 3.5-2.6 5.7-6.1 5.7h-4.8zm7.9-5.7c0-1.8-1.1-3.1-3.1-3.1h-1.9v6.2H57c2 0 3.1-1.4 3.1-3.1m4.1 0c0-3.4 2.6-5.9 6.1-5.9 3.5 0 6.1 2.4 6.1 5.9 0 3.5-2.6 5.9-6.1 5.9-3.5 0-6.1-2.4-6.1-5.9m9.2 0c0-1.9-1.2-3.3-3.1-3.3-1.9 0-3.1 1.4-3.1 3.3 0 1.8 1.2 3.3 3.1 3.3 1.9 0 3.1-1.4 3.1-3.3m11 5.7l-1.9-3.8H81v3.8h-2.9V8.1h5.7c2.5 0 3.9 1.7 3.9 3.8 0 2-1.2 3-2.3 3.4l2.3 4.2h-3.3zm.3-7.6c0-.8-.6-1.2-1.4-1.2H81v2.4h2.3c.8 0 1.4-.4 1.4-1.2m4.2 1.9c0-3.4 2.6-5.9 6.1-5.9 3.5 0 6.1 2.4 6.1 5.9 0 3.5-2.6 5.9-6.1 5.9-3.5 0-6.1-2.4-6.1-5.9m9.1 0c0-1.9-1.2-3.3-3.1-3.3-1.9 0-3.1 1.4-3.1 3.3 0 1.8 1.2 3.3 3.1 3.3 1.9 0 3.1-1.4 3.1-3.3m12.4 5.7v-4.6h-4.7v4.6h-3V8.1h3v4.3h4.7V8.1h2.9v11.4zm4.6-5.7c0-3.4 2.6-5.9 6.1-5.9 3.5 0 6.1 2.4 6.1 5.9 0 3.5-2.6 5.9-6.1 5.9-3.5 0-6.1-2.4-6.1-5.9m9.2 0c0-1.9-1.2-3.3-3.1-3.3-1.9 0-3.1 1.4-3.1 3.3 0 1.8 1.2 3.3 3.1 3.3 1.9 0 3.1-1.4 3.1-3.3m7.3 5.7l-4.3-11.4h3.3l2.8 8.2 2.8-8.2h3.3l-4.2 11.4zm-79.3 17V25.1H57c3.6 0 6.1 2.1 6.1 5.7 0 3.5-2.6 5.7-6.1 5.7h-4.8zm7.9-5.7c0-1.8-1.1-3.1-3.1-3.1h-1.9v6.2H57c2 0 3.1-1.4 3.1-3.1m4.7 5.7V25.1h8.3v2.6h-5.3v1.8H73V32h-5.2v1.9h5.3v2.6zm9.6-1.6l1.5-2.2c.8.8 2.1 1.5 3.6 1.5 1 0 1.6-.4 1.6-.9 0-1.5-6.4-.3-6.4-4.7 0-1.9 1.6-3.6 4.5-3.6 1.8 0 3.4.5 4.6 1.6l-1.6 2.1c-1-.8-2.2-1.2-3.3-1.2-.8 0-1.2.3-1.2.8 0 1.4 6.4.4 6.4 4.6 0 2.3-1.7 3.8-4.7 3.8-2.2 0-3.8-.7-5-1.8m11.5-9.8h2.9v11.3h-2.9zm4.7 5.7c0-3.6 2.8-5.9 6.1-5.9 2.5 0 4.1 1.3 4.8 2.8L99.1 29c-.4-.7-1.3-1.4-2.4-1.4-1.9 0-3.2 1.4-3.2 3.3s1.3 3.3 3.2 3.3c.8 0 1.7-.3 2.1-.7v-.9h-2.6V30h5.5v4.5c-1.2 1.3-2.9 2.2-5 2.2-3.4 0-6.1-2.3-6.1-5.9m20.9 5.7l-4.8-6.6v6.6h-2.9V25.1h3l4.6 6.3v-6.3h2.9v11.4zM17.7 0H0v44.7h17.8c15 0 24.6-8.8 24.6-22.4C42.4 8.7 32.7 0 17.7 0m-.4 35.7h-8V9.5h8c9.3 0 15.7 3.7 15.7 12.7.1 7.5-5.8 13.5-15.7 13.5"/><path d="M19.1 17H17v10.6h2c4 0 6.4-2.4 6.4-5.4 0-3.7-2.6-5.2-6.3-5.2"/></symbol><symbol viewBox="0 0 124.099 124.1" id="email"><path d="M18.25 106.7c5.6 5.399 12.3 9.8 20.1 12.8 7.8 3 16.5 4.6 25.9 4.6 10.5 0 20.2-1.6 28.9-4.899 7.9-2.9 1.1-17.601-4.7-15.2-6.399 2.7-14.2 4.1-23.101 4.1-7 0-13.399-1.1-19-3.199-5.6-2.101-10.5-5.101-14.5-9-4-3.9-7.2-8.7-9.4-14.2-2.3-5.601-3.4-12-3.4-19 0-6.6 1.1-12.9 3.3-18.5 2.2-5.6 5.2-10.6 9.2-14.6 3.9-4.1 8.7-7.4 14.2-9.7 5.5-2.3 11.7-3.5 18.5-3.5 6.301 0 12.1.9 17.301 2.5 5.1 1.6 9.5 4.1 13.199 7.4 3.7 3.3 6.6 7.3 8.7 12.1 2.101 4.8 3.101 10.4 3.101 16.8 0 3.7-.4 7.2-1.201 10.5-.799 3.1-1.799 5.899-3.199 8.1-1.301 2.101-2.801 3.8-4.6 5-2.101 1.4-5.201 2.2-7.601 1.4-3-1-2.399-5.2-2.2-7.7.301-3.4 1.2-6.6 1.9-9.9 1.1-5.4 2.3-10.7 3.4-16 .6-2.9 1.299-5.9 1.899-8.8.8-3.7-2-7.3-5.899-7.3h-4.4c-2.7 0-5.1 1.8-5.801 4.4-.299 1.2-.6 2.2-.6 2.2-2.199-6.8-10.3-8.7-16.7-8.6-8.4.1-16.1 4.4-21.7 10.5-.5.6-1.1 1.2-1.6 1.8-2.9 3.5-5.1 7.6-6.6 11.9-1.6 4.6-2.4 9.3-2.4 14.1 0 4.101.6 8 1.7 11.5 1.2 3.601 2.9 6.7 5.1 9.3 2.2 2.601 5 4.7 8.3 6.2 3.3 1.5 7 2.3 11 2.3 3 0 5.8-.5 8.3-1.399 2.4-.9 4.6-2 6.5-3.3 1.5-1 2.9-2.2 4-3.301.699 1.301 1.5 2.4 2.6 3.5 2.801 3 7.1 4.5 12.801 4.5 4.5 0 8.899-.899 13-2.699 4.1-1.801 7.799-4.601 10.899-8.2 3-3.601 5.5-8 7.3-13.2 1.801-5.2 2.7-11.2 2.7-17.8 0-9-1.7-17-5-23.7s-7.8-12.4-13.399-16.9c-5.5-4.5-11.9-7.8-19-10.1C79.05 1.1 71.75 0 64.25 0c-8.7 0-17 1.6-24.7 4.7-7.7 3.2-14.5 7.6-20.2 13.1-5.8 5.5-10.4 12.2-13.7 19.7-3.3 7.5-5 15.9-5 24.7 0 8.899 1.5 17.3 4.6 24.8 3 7.6 7.4 14.2 13 19.7zm54.099-42c-.699 2.7-1.699 5.3-3.1 7.7-1.4 2.3-3.1 4.199-5.3 5.699-2 1.4-4.4 2.101-7.4 2.101-1.9 0-3.4-.4-4.5-1.101-1.2-.8-2.2-1.8-2.9-3.1-.8-1.4-1.3-2.9-1.6-4.4-.3-1.6-.5-3.1-.5-4.399 0-2.8.4-5.6 1.2-8.5.8-2.8 1.9-5.4 3.4-7.6 1.5-2.2 3.2-4 5.3-5.4 1.9-1.3 4-1.9 6.5-1.9 2 0 3.601.3 4.8 1 1.2.7 2.2 1.6 2.9 2.7.8 1.2 1.3 2.6 1.699 4.1.4 1.7.601 3.5.601 5.2-.1 2.5-.399 5.1-1.1 7.9z"/></symbol><symbol viewBox="0 0 470.513 470.513" id="fb"><path d="M271.521 154.17v-40.541c0-6.086.28-10.8.849-14.13.567-3.335 1.857-6.615 3.859-9.853 1.999-3.236 5.236-5.47 9.706-6.708 4.476-1.24 10.424-1.858 17.85-1.858h40.539V0h-64.809c-37.5 0-64.433 8.897-80.803 26.691-16.368 17.798-24.551 44.014-24.551 78.658v48.82h-48.542v81.086h48.539v235.256h97.362V235.256h64.805l8.566-81.086h-73.37z"/></symbol><symbol viewBox="0 0 54 54" id="heading-icon"><path d="M27 0C12.112 0 0 12.112 0 27s12.112 27 27 27 27-12.112 27-27S41.888 0 27 0zm0 52C13.215 52 2 40.785 2 27S13.215 2 27 2s25 11.215 25 25-11.215 25-25 25z"/><path d="M23.001 14.293a.999.999 0 1 0-1.414 1.414L32.88 27 21.587 38.293a.999.999 0 1 0 1.414 1.414l11.498-11.498a1.711 1.711 0 0 0 0-2.418L23.001 14.293z"/></symbol><symbol viewBox="0 0 97.395 97.395" id="inst"><path d="M12.501 0h72.393c6.875 0 12.5 5.09 12.5 12.5v72.395c0 7.41-5.625 12.5-12.5 12.5H12.501C5.624 97.395 0 92.305 0 84.895V12.5C0 5.09 5.624 0 12.501 0zm58.447 10.821a4.395 4.395 0 0 0-4.383 4.385v10.495a4.396 4.396 0 0 0 4.383 4.385h11.008a4.398 4.398 0 0 0 4.385-4.385V15.206a4.397 4.397 0 0 0-4.385-4.385H70.948zm15.439 30.367h-8.572a28.486 28.486 0 0 1 1.25 8.355c0 16.2-13.556 29.332-30.275 29.332-16.718 0-30.272-13.132-30.272-29.332 0-2.904.438-5.708 1.25-8.355h-8.945v41.141a3.884 3.884 0 0 0 3.872 3.872h67.822a3.883 3.883 0 0 0 3.872-3.872V41.188h-.002zM48.789 29.533c-10.802 0-19.56 8.485-19.56 18.953s8.758 18.953 19.56 18.953c10.803 0 19.562-8.485 19.562-18.953s-8.758-18.953-19.562-18.953z"/></symbol><symbol viewBox="0 0 97.713 97.713" id="location"><path d="M48.855 0C29.021 0 12.883 16.138 12.883 35.974c0 5.174 1.059 10.114 3.146 14.684 8.994 19.681 26.238 40.46 31.31 46.359a2.003 2.003 0 0 0 3.034 0c5.07-5.898 22.314-26.676 31.311-46.359 2.088-4.57 3.146-9.51 3.146-14.684C84.828 16.138 68.69 0 48.855 0zm0 54.659c-10.303 0-18.686-8.383-18.686-18.686 0-10.304 8.383-18.687 18.686-18.687s18.686 8.383 18.686 18.687c.001 10.303-8.382 18.686-18.686 18.686z"/></symbol><symbol viewBox="411.6 381 264.6 80.4" id="logotip"><path d="M463.2 460.1h2.3v1.4h-14.6v-1.4h2.9v-77.7h-2.9V381H463v1.4l.1 53.1c0-.6.3-1.2.9-1.6.6-.5 1.7-.7 3.3-.7 1.4 0 2.6-.2 3.4-.7.9-.5 1.5-1.6 1.9-3.4.4-1.8.7-4.5.8-8.1.1-3.6.2-8.6.2-14.8 0-6.2-.3-10.9-.8-14.1-.5-3.2-1.3-5.6-2.2-7-1-1.5-2.1-2.3-3.4-2.4-1.4-.1-2.7-.2-4.2-.2V381c3.7 0 6.8.1 9.3.4 2.5.3 4.6 1.2 6.1 2.7 1.5 1.6 2.6 4.1 3.2 7.5.6 3.4.9 8.2.9 14.5 0 7-.1 12.4-.4 16.2-.3 3.8-.9 6.7-1.9 8.5-1 1.8-2.6 2.9-4.6 3.3-2.1.4-5 .6-8.7.6-1.4 0-2.4.4-2.9 1.1s-.9 1.9-.9 3.5v20.8zm44.9-36.3c3.1.2 5.6.6 7.3 1.2 1.7.7 3 1.7 3.8 3.1.8 1.5 1.2 3.3 1.4 5.6.1 2.3.2 5.1.2 8.4.1 3.7.1 6.7 0 9s0 4.1.2 5.5c.2 1.3.6 2.2 1.2 2.7s1.7.7 3.2.7v1.5c-3.7 0-6.5-.3-8.3-.9-1.9-.6-3.2-1.6-4-3.1-.8-1.5-1.2-3.5-1.2-5.9v-9.4c0-4.6-.1-8.1-.5-10.5-.3-2.4-.8-4.2-1.4-5.2-.7-1.1-1.4-1.7-2.2-1.8-.9-.1-1.8-.2-2.7-.2-1.4 0-2.4.4-2.9 1.1-.6.8-.9 1.9-.9 3.5l.1 30.9h2.3v1.5H489V460h2.9v-77.6H489V381h12.2v43.9c0-.6.3-1.1.9-1.5.6-.4 1.7-.6 3.3-.6 1.4 0 2.6-.1 3.5-.3.9-.2 1.5-1.1 2-2.6.4-1.4.7-3.7.8-6.8.1-3.1.2-7.5.2-13.3 0-4.1-.3-7.3-.8-9.6s-1.3-4.1-2.3-5.2c-1-1.2-2.2-1.9-3.5-2.2-1.3-.3-2.7-.5-4.1-.5V381c3.7 0 6.8.2 9.3.6 2.6.4 4.6 1.2 6 2.5 1.5 1.3 2.6 3.2 3.2 5.7.7 2.5 1 5.8 1 10.1 0 4.6-.1 8.4-.2 11.5-.1 3.1-.6 5.5-1.4 7.4-.8 1.8-2.1 3.1-3.8 3.9-1.7.7-4.2 1.1-7.2 1.1zm51.5-42.8v5h-1.5v-3.7h-14.6l.1 37.6c0-.8.3-1.4.9-1.8.6-.4 1.7-.7 3.3-.7h5.5V415h1.5v6.1h-1.5v-2.2h-6c-1.4 0-2.4.4-2.9 1.2-.6.8-.9 1.9-.9 3.4V460H558v-3.7h1.5v5h-28.3v-1.4h2.9v-77.7h-2.9V381h28.4zm39.6 0v5.6h-1.5v-4.3h-11.4l.1 77.7h2.3v1.4h-14.6V460h2.9v-77.7h-10.8v4.3h-1.5V381h34.5zm37.3 0v5.6H635v-4.3h-11.4l.1 77.7h2.3v1.4h-14.6V460h2.9v-77.7h-10.8v4.3H602V381h34.5zm19 43.9l-11.9-42.5H641V381h13.6v1.4H652l9.9 38.9 10.6-38.9h-2.4V381h6.3v1.4h-2.2l-11.4 40.7v37h2.4v1.4h-12.5v-1.4h2.9v-35.2zM422 452.3c0 2.1.7 4.1 2.1 5.7l1.6 1.9h-14.1v1.5h29.1v-1.5H437l1.6-1.9c1.4-1.7 2.1-3.7 2.1-5.7 0-5-4.2-9.1-9.4-9.1-5.1 0-9.3 4.1-9.3 9.1zm17.1 0c0 3.9-2.7 7-6.7 7.5h-2c-4-.5-6.6-3.7-6.6-7.5 0-4.3 3.3-7.5 7.6-7.5s7.7 3.2 7.7 7.5zm-17.8-21.4c.2 1.8.8 3.5 2 4.8 1.1 1.2 2.5 2 2.5 2h-4.5v1.3h19.5v-1.3h-11.2c-3.5-.7-6.5-3.4-6.9-6.9h-1.4zm.1-3.7h19.5v-1.6h-19.5v1.6zm-6-.9c0-.5-.4-.9-.9-.9s-.9.4-.9.9.4.9.9.9.9-.4.9-.9zm6.6-13.6c0 5 4.2 9.1 9.4 9.1s9.4-4.1 9.4-9.1c0-2.1-.7-4.1-2.1-5.7l-1.6-2h3.7v-1.5h-29.1v1.5h14.1l-1.6 2c-1.5 1.6-2.2 3.6-2.2 5.7zm17.1 0c0 4.3-3.4 7.5-7.7 7.5-4.4 0-7.6-3.3-7.6-7.5 0-3.9 2.6-7.1 6.6-7.5h2c3.9.4 6.7 3.6 6.7 7.5zm-18-22c0 5.2 4.4 9.5 9.8 9.5s9.8-4.3 9.8-9.5c0-2.4-1-4.8-2.6-6.5v2.3c.7 1.2 1.2 2.7 1.2 4.2 0 3.6-2.5 7.4-7.6 8.1v-17.6c-6 .1-10.6 4.1-10.6 9.5zm9.1 8c-5.4-.8-7.7-4.5-7.7-8.1 0-3.5 2.6-6.9 7.7-7.9v16z" fill="#333"/></symbol><symbol viewBox="0 0 600.759 600.759" id="map"><path d="M203.993 295.287c21.001 0 38.024 17.023 38.024 38.018s-17.023 38.024-38.024 38.024c-20.998 0-38.021-17.029-38.021-38.024s17.023-38.018 38.021-38.018z"/><path d="M574.267 325.822l25.782-203.262-184.936-70.182-221.834 105.959L0 76.71l26.099 216.848L1.085 507.093l205.36 38.521 209.46-39.892 184.854 42.658-26.492-222.558zM414.428 73.909l163.811 61.731-11.277 88.88-163.273-41.301 10.739-109.31zm-21.669 11.283l-8.642 93.06-.142-.033L270.929 192.8l-.677 2.494c-.142.538-13.258 48.995-27.08 71.033-8.946-5.261-19.006-8.784-29.755-10.09l-9.164-81.028 188.506-90.017zm-17.283 207.574l-98.251 14.815c-5.291-14.969-14.999-27.825-27.606-37.022 12.862-20.531 24.471-60.278 27.394-70.77l106.361-13.728-7.898 106.705zM184.269 176.197l9.079 80.236c-29.864 4.113-54.358 25.2-63.336 53.217l-83.779-12.968-8.045-77.706c27.769-1.838 48.599-10.875 61.948-27 12.034-14.514 15.495-31.685 16.157-44.484l67.976 28.705zM24.187 108.596l84.465 35.668c-.242 11.777-2.905 28.865-14.443 42.791-12.037 14.514-31.182 22.632-56.998 24.261l-13.024-102.72zm-1.09 382.325l20.779-174.402 82.626 12.803c-.062 1.324-.195 2.636-.195 3.989 0 18.164 6.307 34.856 16.807 48.108l-42.912 34.459-13.521 86.959-63.584-11.916zm161.878 30.358l-90.721-17.017 13.104-84.252 40.837-32.781c12.528 12.95 29.48 21.593 48.421 23.377l-11.641 110.673zm-43.246-187.968c0-34.348 27.935-62.281 62.264-62.281 34.347 0 62.282 27.934 62.282 62.281 0 34.33-27.935 62.265-62.282 62.265-34.33.006-62.264-27.935-62.264-62.265zm64.69 191.987l-1.75-.33 12.12-115.119c36.756-6.135 64.9-38.076 64.9-76.556 0-2.081-.15-4.114-.313-6.159l96.038-14.481 8.016 81.911c-42.132 1.98-73.625 14.932-93.449 38.857-23.114 27.923-24.205 62.737-23.008 79.949l-62.554 11.928zm70.247-13.381c-.931-16.337.419-48.397 21.264-73.565 18.438-22.26 48.182-34.271 88.244-36.091l8.535 87.154-118.043 22.502zm126.307-320.946l163.03 41.225-9.776 77.017-160.974-19.431 7.72-98.811zm131.083 184.774l-74.175-8.819 13.584 131.58-59.428-12.773-16.852-176.034 1.732-.272 155.612 19.754 23.022 193.354-96.298-22.213-12.714-124.599 66.111 7.672-.594-7.65z"/></symbol><symbol viewBox="0 0 41.756 41.756" id="modal-close"><path d="M27.948 20.878L40.291 8.536a5 5 0 1 0-7.07-7.071L20.878 13.809 8.535 1.465a5 5 0 0 0-7.07 7.071l12.342 12.342L1.465 33.22a5 5 0 1 0 7.07 7.071l12.343-12.342 12.343 12.343c.976.977 2.256 1.464 3.535 1.464s2.56-.487 3.535-1.464a5 5 0 0 0 0-7.071L27.948 20.878z"/></symbol><symbol viewBox="0 0 306 306" id="owl-next"><path d="M94.35 0l-35.7 35.7L175.95 153 58.65 270.3l35.7 35.7 153-153z"/></symbol><symbol viewBox="0 0 306 306" id="owl-prev"><path d="M247.35 270.3L130.05 153l117.3-117.3L211.65 0l-153 153 153 153z"/></symbol><symbol viewBox="0 0 512 512" id="scroll"><path d="M369.018 46.807C338.818 16.622 298.682 0 256 0 167.87 0 96.169 71.7 96.169 159.831V352.17C96.169 440.3 167.87 512 256 512s159.831-71.7 159.831-159.831V159.831c0-42.682-16.623-82.818-46.813-113.024zm19.723 305.362c0 73.194-59.546 132.741-132.741 132.741s-132.741-59.546-132.741-132.741V159.831C123.259 86.636 182.806 27.09 256 27.09c35.447 0 68.784 13.806 93.863 38.873 25.072 25.084 38.878 58.421 38.878 93.868v192.338z"/><path d="M256.014 83.979c-7.481 0-13.545 6.064-13.545 13.545v31.831c0 7.481 6.064 13.545 13.545 13.545s13.545-6.064 13.545-13.545V97.524c0-7.481-6.065-13.545-13.545-13.545zm0 68.12c-7.481 0-13.545 6.064-13.545 13.545v4.007c0 7.481 6.064 13.545 13.545 13.545s13.545-6.064 13.545-13.545v-4.007c0-7.481-6.065-13.545-13.545-13.545z"/></symbol><symbol viewBox="0 0 56.966 56.966" id="search"><path d="M55.146 51.887L41.588 37.786A22.926 22.926 0 0 0 46.984 23c0-12.682-10.318-23-23-23s-23 10.318-23 23 10.318 23 23 23c4.761 0 9.298-1.436 13.177-4.162l13.661 14.208c.571.593 1.339.92 2.162.92.779 0 1.518-.297 2.079-.837a3.004 3.004 0 0 0 .083-4.242zM23.984 6c9.374 0 17 7.626 17 17s-7.626 17-17 17-17-7.626-17-17 7.626-17 17-17z"/></symbol><symbol viewBox="0 0 348.077 348.077" id="tel"><path d="M340.273 275.083l-53.755-53.761c-10.707-10.664-28.438-10.34-39.518.744l-27.082 27.076a792.327 792.327 0 0 1-5.344-2.973c-17.102-9.476-40.509-22.464-65.14-47.113-24.704-24.701-37.704-48.144-47.209-65.257-1.003-1.813-1.964-3.561-2.913-5.221l18.176-18.149 8.936-8.947c11.097-11.1 11.403-28.826.721-39.521L73.39 8.194c-10.682-10.68-28.421-10.356-39.518.744l-15.15 15.237.414.411c-5.08 6.482-9.325 13.958-12.484 22.02C3.74 54.28 1.927 61.603 1.098 68.941-6 127.785 20.89 181.564 93.866 254.541c100.875 100.868 182.167 93.248 185.674 92.876 7.638-.913 14.958-2.738 22.397-5.627 7.992-3.122 15.463-7.361 21.941-12.43l.331.294 15.348-15.029c11.074-11.098 11.393-28.83.716-39.542z"/></symbol><symbol viewBox="0 0 512.002 512.002" id="viber"><path d="M437.976 214.854c.615-72.186-60.866-138.361-137.051-147.512-1.515-.18-3.166-.453-4.913-.743-3.772-.625-7.672-1.267-11.607-1.267-15.614 0-19.788 10.968-20.887 17.51-1.069 6.36-.049 11.701 3.024 15.882 5.171 7.031 14.269 8.279 21.577 9.28 2.142.296 4.163.571 5.855.951 68.449 15.295 91.497 39.341 102.761 107.208.275 1.658.399 3.702.531 5.869.491 8.113 1.515 24.991 19.661 24.991h.002c1.511 0 3.134-.13 4.824-.388 16.898-2.568 16.368-17.996 16.114-25.409-.072-2.088-.14-4.063.037-5.376a7.57 7.57 0 0 0 .072-.996z"/><path d="M279.974 40.846c2.027.146 3.947.286 5.545.531 112.4 17.286 164.091 70.54 178.416 183.819.243 1.926.281 4.274.321 6.761.143 8.85.437 27.262 20.21 27.643l.614.006c6.201 0 11.134-1.87 14.662-5.562 6.155-6.438 5.726-16.002 5.379-23.689-.084-1.886-.165-3.662-.145-5.217C506.405 109.283 406.12 4.226 290.369.32c-.48-.016-.938.01-1.401.075-.227.033-.649.075-1.371.075-1.154 0-2.574-.1-4.08-.202C281.696.143 279.632 0 277.54 0c-18.434 0-21.938 13.102-22.386 20.912-1.034 18.051 16.428 19.321 24.82 19.934zm178.537 330.756c-2.39-1.825-4.861-3.714-7.174-5.578-12.272-9.876-25.328-18.979-37.955-27.783a2807.15 2807.15 0 0 1-7.852-5.484c-16.174-11.361-30.715-16.882-44.453-16.882-18.504 0-34.636 10.224-47.951 30.384-5.899 8.938-13.056 13.283-21.876 13.283-5.215 0-11.142-1.488-17.612-4.425-52.207-23.674-89.486-59.972-110.803-107.886-10.305-23.158-6.964-38.295 11.172-50.615 10.299-6.99 29.469-20.003 28.111-44.922-1.538-28.298-63.976-113.445-90.284-123.115-11.138-4.096-22.841-4.134-34.846-.095-30.244 10.167-51.947 28.022-62.769 51.631-10.458 22.813-9.986 49.599 1.366 77.463C48.401 238.14 94.538 308.38 152.72 366.342c56.95 56.74 126.946 103.217 208.042 138.137 7.31 3.145 14.977 4.861 20.575 6.112 1.908.429 3.555.795 4.756 1.124.66.18 1.34.277 2.023.283l.641.003h.003c38.142 0 83.941-34.854 98.007-74.59 12.323-34.793-10.177-51.991-28.256-65.809zm-161.666-238.73c-6.53.165-20.121.502-24.889 14.344-2.231 6.468-1.964 12.084.795 16.692 4.048 6.761 11.805 8.833 18.86 9.97 25.586 4.106 38.726 18.254 41.354 44.522 1.221 12.248 9.469 20.801 20.059 20.801h.002c.782 0 1.582-.046 2.379-.143 12.736-1.515 18.911-10.873 18.353-27.81.204-17.677-9.047-37.745-24.781-53.73-15.79-16.034-34.821-25.064-52.132-24.646z"/></symbol><symbol viewBox="0 0 548.358 548.358" id="vk"><path d="M545.451 400.298c-.664-1.431-1.283-2.618-1.858-3.569-9.514-17.135-27.695-38.167-54.532-63.102l-.567-.571-.284-.28-.287-.287h-.288c-12.18-11.611-19.893-19.418-23.123-23.415-5.91-7.614-7.234-15.321-4.004-23.13 2.282-5.9 10.854-18.36 25.696-37.397 7.807-10.089 13.99-18.175 18.556-24.267 32.931-43.78 47.208-71.756 42.828-83.939l-1.701-2.847c-1.143-1.714-4.093-3.282-8.846-4.712-4.764-1.427-10.853-1.663-18.278-.712l-82.224.568c-1.332-.472-3.234-.428-5.712.144l-3.713.859-1.431.715-1.136.859c-.952.568-1.999 1.567-3.142 2.995-1.137 1.423-2.088 3.093-2.848 4.996-8.952 23.031-19.13 44.444-30.553 64.238-7.043 11.803-13.511 22.032-19.418 30.693-5.899 8.658-10.848 15.037-14.842 19.126-4 4.093-7.61 7.372-10.852 9.849-3.237 2.478-5.708 3.525-7.419 3.142-1.715-.383-3.33-.763-4.859-1.143-2.663-1.714-4.805-4.045-6.42-6.995-1.622-2.95-2.714-6.663-3.285-11.136-.568-4.476-.904-8.326-1-11.563-.089-3.233-.048-7.806.145-13.706.198-5.903.287-9.897.287-11.991 0-7.234.141-15.085.424-23.555.288-8.47.521-15.181.716-20.125.194-4.949.284-10.185.284-15.705s-.336-9.849-1-12.991a44.442 44.442 0 0 0-2.99-9.137c-1.335-2.95-3.289-5.232-5.853-6.852-2.569-1.618-5.763-2.902-9.564-3.856-10.089-2.283-22.936-3.518-38.547-3.71-35.401-.38-58.148 1.906-68.236 6.855-3.997 2.091-7.614 4.948-10.848 8.562-3.427 4.189-3.905 6.475-1.431 6.851 11.422 1.711 19.508 5.804 24.267 12.275l1.715 3.429c1.334 2.474 2.666 6.854 3.999 13.134 1.331 6.28 2.19 13.227 2.568 20.837.95 13.897.95 25.793 0 35.689-.953 9.9-1.853 17.607-2.712 23.127-.859 5.52-2.143 9.993-3.855 13.418-1.715 3.426-2.856 5.52-3.428 6.28-.571.76-1.047 1.239-1.425 1.427a21.387 21.387 0 0 1-7.71 1.431c-2.667 0-5.901-1.334-9.707-4-3.805-2.666-7.754-6.328-11.847-10.992-4.093-4.665-8.709-11.184-13.85-19.558-5.137-8.374-10.467-18.271-15.987-29.691l-4.567-8.282c-2.855-5.328-6.755-13.086-11.704-23.267-4.952-10.185-9.329-20.037-13.134-29.554-1.521-3.997-3.806-7.04-6.851-9.134l-1.429-.859c-.95-.76-2.475-1.567-4.567-2.427a30.301 30.301 0 0 0-6.567-1.854l-78.229.568c-7.994 0-13.418 1.811-16.274 5.428l-1.143 1.711c-.571.953-.859 2.475-.859 4.57 0 2.094.571 4.664 1.714 7.707 11.42 26.84 23.839 52.725 37.257 77.659 13.418 24.934 25.078 45.019 34.973 60.237 9.897 15.229 19.985 29.602 30.264 43.112 10.279 13.515 17.083 22.176 20.412 25.981 3.333 3.812 5.951 6.662 7.854 8.565l7.139 6.851c4.568 4.569 11.276 10.041 20.127 16.416 8.853 6.379 18.654 12.659 29.408 18.85 10.756 6.181 23.269 11.225 37.546 15.126 14.275 3.905 28.169 5.472 41.684 4.716h32.834c6.659-.575 11.704-2.669 15.133-6.283l1.136-1.431c.764-1.136 1.479-2.901 2.139-5.276.668-2.379 1-5 1-7.851-.195-8.183.428-15.558 1.852-22.124 1.423-6.564 3.045-11.513 4.859-14.846 1.813-3.33 3.859-6.14 6.136-8.418 2.282-2.283 3.908-3.666 4.862-4.142.948-.479 1.705-.804 2.276-.999 4.568-1.522 9.944-.048 16.136 4.429 6.187 4.473 11.99 9.996 17.418 16.56 5.425 6.57 11.943 13.941 19.555 22.124 7.617 8.186 14.277 14.271 19.985 18.274l5.708 3.426c3.812 2.286 8.761 4.38 14.853 6.283 6.081 1.902 11.409 2.378 15.984 1.427l73.087-1.14c7.229 0 12.854-1.197 16.844-3.572 3.998-2.379 6.373-5 7.139-7.851.764-2.854.805-6.092.145-9.712-.677-3.611-1.344-6.136-2.008-7.563z"/></symbol><symbol viewBox="0 0 418.135 418.135" id="whatsapp"><path d="M198.929.242C88.5 5.5 1.356 97.466 1.691 208.02c.102 33.672 8.231 65.454 22.571 93.536L2.245 408.429c-1.191 5.781 4.023 10.843 9.766 9.483l104.723-24.811c26.905 13.402 57.125 21.143 89.108 21.631 112.869 1.724 206.982-87.897 210.5-200.724C420.113 93.065 320.295-5.538 198.929.242zm124.957 321.955c-30.669 30.669-71.446 47.559-114.818 47.559-25.396 0-49.71-5.698-72.269-16.935l-14.584-7.265-64.206 15.212 13.515-65.607-7.185-14.07c-11.711-22.935-17.649-47.736-17.649-73.713 0-43.373 16.89-84.149 47.559-114.819 30.395-30.395 71.837-47.56 114.822-47.56 43.372.001 84.147 16.891 114.816 47.559 30.669 30.669 47.559 71.445 47.56 114.817-.001 42.986-17.166 84.428-47.561 114.822z"/><path d="M309.712 252.351l-40.169-11.534a14.971 14.971 0 0 0-14.816 3.903l-9.823 10.008c-4.142 4.22-10.427 5.576-15.909 3.358-19.002-7.69-58.974-43.23-69.182-61.007-2.945-5.128-2.458-11.539 1.158-16.218l8.576-11.095a14.97 14.97 0 0 0 1.847-15.21l-16.9-38.223c-4.048-9.155-15.747-11.82-23.39-5.356-11.211 9.482-24.513 23.891-26.13 39.854-2.851 28.144 9.219 63.622 54.862 106.222 52.73 49.215 94.956 55.717 122.449 49.057 15.594-3.777 28.056-18.919 35.921-31.317 5.362-8.453 1.128-19.679-8.494-22.442z"/></symbol></svg>