<svg version="1" xmlns="http://www.w3.org/2000/svg" width="348" height="348" viewBox="0 0 261.000000 261.000000"><path d="M.7.7C.3 1 0 46.4.1 101.4c0 77.9.3 99.7 1.2 98.2 12.6-20 45.5-52.3 88.2-86.5 14.3-11.6 18.8-16.8 20.1-23.8.5-2.7-.1-4.4-3.4-9.6-4.4-6.9-7.2-14.2-7.2-18.5.1-3.7 3.4-10.8 5.8-12.1 1.3-.7 3.3-.6 6.8.5 7.2 2.2 18.1 4.4 21.7 4.4 1.7 0 7.3-1.4 12.4-3.2 9.2-3.1 9.3-3.1 11.4-1.2 6.1 5.5 6.3 12.8.5 25.1l-3.8 8 3.2 7.6c3.1 7.6 3.4 7.9 20.8 23.4 42.6 38 73.3 71.3 80.4 87.1l1.9 4.3-2.7 4.7c-1.5 2.5-6.4 8.4-10.9 13.1-7 7.2-8.4 8.3-10 7.3-1.5-.8-2.7-.4-6 1.8-2.2 1.5-5 3-6.3 3.4-1.7.6-2.2 1.5-2.2 4 0 1.9-.6 3.8-1.2 4.4-2.2 1.7-23.4 8.2-35.6 10.8-6.3 1.4-17.9 3.3-25.6 4.3l-14.1 1.9 57.5-.1 57.5-.2V.5L198.1.2 135.6 0l3.2 3.1c1.7 1.7 4.1 5.6 5.2 8.7 1.2 3.1 2.6 6.3 3.3 7 2 2.5 7 4.4 14.6 5.7 9.6 1.7 11.6 3.7 10.7 10.8-.4 2.7-1.5 6.9-2.4 9.5-2.1 5.6-4.2 6.3-10.3 3.2-2.3-1.2-6.5-2.4-9.3-2.7-4.9-.5-7.1 0-16.3 3.8-2.9 1.2-3.7 1.1-6.1-.3-7.2-4.3-18.7-4.1-27.5.4-3.7 1.8-4 1.8-5.8.2-3.8-3.5-6.3-18.1-3.6-21.7.8-1.1 4.2-2.2 9.6-3.2 11.7-2 14-3.6 17.4-12 1.5-3.9 4-8.2 5.4-9.7l2.7-2.8H63.9C29.5 0 1 .3.7.7z"/><path d="M127.6 10.2c-.9 1.2-2.3 4.3-3.1 6.9-2.8 8.4-10.5 13.4-23.8 15.4-3.7.6-3.8.7-3.2 3.8 1 4.6 1.5 4.8 6.5 3 6.8-2.4 17.5-2.2 23.4.5 3.1 1.4 5.3 1.9 6 1.3.6-.5 3.7-1.7 7-2.6 6.3-1.9 12.4-1.6 19.5 1l3.9 1.3.7-3.5c.7-4-.3-5.3-4.6-5.3-4.7 0-12.9-3.1-16.4-6.1-2-1.8-4.2-5.2-5.4-8.4-1.1-3-2.6-6.4-3.3-7.5-1.7-2.6-5.3-2.6-7.2.2zM.3 232l.2 28.5 56 .2 56 .1-13.6-1.8c-23.6-3.1-41-7.5-51.9-13-6.6-3.3-8.4-5.2-7.7-8 .4-1.5-.2-2.4-2.6-3.7-1.8-.8-4.9-2.9-7-4.6-2.9-2.2-4.1-2.7-5-1.8-.6.6-1.9 1.1-2.8 1.1-2 0-12.2-10.7-16.4-17.2-1.7-2.5-3.5-5.4-4.2-6.4-.9-1.5-1.2 4.1-1 26.6z"/></svg>