<?xml version="1.0" encoding="utf-8"?>
<!-- Generator: Adobe Illustrator 19.0.0, SVG Export Plug-In . SVG Version: 6.00 Build 0)  -->
<svg version="1.1" id="Capa_1" xmlns="http://www.w3.org/2000/svg" xmlns:xlink="http://www.w3.org/1999/xlink" x="0px" y="0px"
	 viewBox="14.5 -5.1 195 195" enable-background="new 14.5 -5.1 195 195" xml:space="preserve">
<image display="none" overflow="visible" width="194" height="131" xlink:href="4F8A6BC4.jpg"  transform="matrix(0.9999 0 0 0.9999 15 22.4084)">
</image>
<circle fill="#D5EDED" cx="80.3" cy="89.1" r="65.3"/>
<g>
	<path id="path29724" fill="#5EC6CC" d="M117.4,29.6c-10.1,0-18.3,8.2-18.3,18.3c0,1.7,1.3,3.1,3,3.1c1.7,0,3.1-1.3,3.1-3
		c0,0,0-0.1,0-0.1c0-6.8,5.4-12.2,12.2-12.2c6.5,0,11.6,4.9,12.1,11.3l-11.4,14.3c-0.4,0.5-0.7,1.2-0.7,1.9v13.4l-83.8,44.9
		c-1,0.5-1.6,1.6-1.6,2.7v15.3c0,1.7,1.4,3.1,3.1,3.1h39.7v3.1c0,1.7,1.3,3.1,3,3.1c1.7,0,3.1-1.3,3.1-3c0,0,0-0.1,0-0.1v-3.1h79.3
		v3.1c0,1.7,1.3,3.1,3,3.1c1.7,0,3.1-1.3,3.1-3c0,0,0-0.1,0-0.1v-3.1h39.7c1.7,0,3.1-1.4,3.1-3.1v-15.3c0-1.1-0.6-2.2-1.6-2.7
		l-83.8-44.9V64.2l11.5-14.4c0.4-0.5,0.7-1.2,0.7-1.9C135.7,37.8,127.5,29.6,117.4,29.6z M117.4,38.7c-5,0-9.2,4.1-9.2,9.2
		c0,0.8,0.7,1.5,1.5,1.5c0.8,0,1.5-0.7,1.5-1.5c0,0,0,0,0,0c0-3.4,2.7-6.1,6.1-6.1c0.8,0,1.5-0.7,1.5-1.5
		C119,39.5,118.3,38.8,117.4,38.7C117.5,38.7,117.5,38.7,117.4,38.7z M120.5,81.9l82.4,44.1v10.4h-36.6v-3.1c0-1.7-1.3-3.1-3-3.1
		c0,0-0.1,0-0.1,0c-1.7,0-3,1.4-3,3.1v3.1H80.8v-3.1c0-1.7-1.3-3.1-3-3.1c0,0-0.1,0-0.1,0c-1.7,0-3,1.4-3,3.1v3.1H38.1V126
		L120.5,81.9z M120.5,87.3c-0.8,0-1.5,0.7-1.5,1.5c0,0.6,0.3,1.1,0.8,1.4l76.3,40.9c0.7,0.4,1.7,0.1,2.1-0.6
		c0.4-0.7,0.1-1.7-0.6-2.1c0,0,0,0,0,0l-76.3-40.9C121,87.3,120.7,87.3,120.5,87.3z"/>
</g>
</svg>
