<?xml version="1.0" encoding="utf-8"?>
<!-- Generator: Adobe Illustrator 19.0.0, SVG Export Plug-In . SVG Version: 6.00 Build 0)  -->
<svg version="1.1" id="Capa_1" xmlns="http://www.w3.org/2000/svg" xmlns:xlink="http://www.w3.org/1999/xlink" x="0px" y="0px"
	 viewBox="132.8 32.2 195 195" enable-background="new 132.8 32.2 195 195" xml:space="preserve">
<circle fill="#D5EDED" cx="207.8" cy="132.7" r="65.3"/>
<path fill="#5EC6CC" d="M309.4,145.2c-1.6-1.6-3.6-3.5-6-6.3v-23.6c0-0.3,0-6.2-3.3-12.2c-3-5.6-9.5-12.3-23-12.3h-26.2l-1.6-3.3
	c1.9-1.3,3.2-3.5,3.2-6c0-3.9-3.2-7.1-7.1-7.1c-2,0-3.7,0.8-5,2.1c-1.3-1.3-3.1-2.1-5-2.1c-3.9,0-7.1,3.2-7.1,7.1
	c0,2.5,1.3,4.7,3.2,6l-1.6,3.3h-26.2c-13.6,0-20,6.7-23,12.3c-3.2,6-3.3,12-3.3,12.2v23.6c-2.4,2.8-4.4,4.7-6,6.3
	c-4.5,4.5-6.6,6.5-6.6,15.7c0,6.9,1.3,15.7,11.2,23c7,5.1,17.5,8.8,31.4,10.9c0.3,0.1,14.8,2.2,33,2.2s32.8-2,33-2.2
	c13.9-2.1,24.4-5.7,31.4-10.9c10-7.3,11.2-16.2,11.2-23C315.9,151.7,313.9,149.7,309.4,145.2z M245.3,78.6c1.6,0,2.9,1.3,2.9,2.9
	c0,1.6-1.3,2.9-2.9,2.9c-1.6,0-2.9-1.3-2.9-2.9C242.4,79.9,243.7,78.6,245.3,78.6z M240.3,86.6c1.2,1.2,2.9,2,4.8,2.1l1.1,2.1h-11.7
	l1.1-2.1C237.4,88.6,239.1,87.8,240.3,86.6z M235.3,78.6c1.6,0,2.9,1.3,2.9,2.9c0,1.6-1.3,2.9-2.9,2.9s-2.9-1.3-2.9-2.9
	C232.3,79.9,233.7,78.6,235.3,78.6z M181.4,115.3c0-0.8,0.3-20.3,22.1-20.3h73.5c21.8,0,22.1,19.5,22.1,20.3v17.5
	c-1.7-3.6-2.4-7.4-3.4-12.8l-0.2-1.3c-1.8-9.9-8.1-14.6-13.1-16.8c-5.3-2.3-10.1-2.4-10.3-2.4h-63.6c-0.2,0-5,0-10.3,2.4
	c-5,2.2-11.3,6.9-13.1,16.8l-0.2,1.3c-1,5.4-1.7,9.2-3.4,12.8L181.4,115.3L181.4,115.3z M168.9,160.9c0-7.5,1.1-8.6,5.3-12.7
	c1.8-1.7,4-3.9,6.7-7.2c5.5-6.5,6.5-12,8.1-20.3l0.2-1.3c2.9-15.5,18.7-15.8,19.3-15.8h6.9c0.1,5.3-0.3,20.7-6.2,36.7
	c-1,2.6-1.9,5-2.7,7.3c-6.9,18.3-11,29.2-3,42.3C168.9,183.5,168.9,167.8,168.9,160.9z M209.2,190.9c-9.7-12.9-6.3-22.1,1.2-41.8
	c0.9-2.3,1.8-4.7,2.7-7.3c6.2-16.7,6.6-32.4,6.5-38.1H261c-0.1,5.7,0.3,21.4,6.5,38.1c1,2.6,1.9,5,2.7,7.3
	c7.4,19.7,10.9,28.9,1.2,41.8c-8.9,1.3-19.3,1.9-31.1,1.9C227.9,192.8,217.7,192.1,209.2,190.9z M302.2,180.6
	c-5.7,4.2-14.1,7.3-25.1,9.4c8.1-13.1,3.9-24-3-42.3c-0.9-2.3-1.8-4.7-2.7-7.3c-5.9-16-6.3-31.4-6.2-36.7h6.9c0,0,4.1,0,8.6,2
	c5.9,2.6,9.5,7.2,10.7,13.8l0.2,1.3c1.5,8.3,2.5,13.8,8.1,20.3c2.7,3.2,4.9,5.4,6.7,7.2c4.2,4.1,5.3,5.3,5.3,12.7
	C311.7,167.2,310.6,174.4,302.2,180.6z"/>
</svg>
