<?xml version="1.0" encoding="utf-8"?>
<!-- Generator: Adobe Illustrator 19.0.0, SVG Export Plug-In . SVG Version: 6.00 Build 0)  -->
<svg version="1.1" id="Capa_1" xmlns="http://www.w3.org/2000/svg" xmlns:xlink="http://www.w3.org/1999/xlink" x="0px" y="0px"
	 viewBox="384.5 32.5 195 195" enable-background="new 384.5 32.5 195 195" xml:space="preserve">
<circle fill="#D5EDED" cx="462.8" cy="130" r="65.3"/>
<g>
	<g>
		<g>
			<g>
				<g>
					<path fill="#5EC6CC" d="M497,187.4l64.1-78.6l-20-27.9h-88.3l-20,27.9L497,187.4L497,187.4z M565.5,110.2l-66.8,81.9
						c-0.1,0.1-0.2,0.2-0.3,0.3c-0.9,0.7-2.3,0.6-3-0.3l-66.8-81.9c-0.6-0.7-0.7-1.8-0.1-2.6l21.5-30c0.4-0.6,1.1-1,1.9-1h90.6v0
						c0.7,0,1.3,0.3,1.8,0.9l21.5,30.1L565.5,110.2z"/>
				</g>
				<path fill="#5EC6CC" d="M512.1,106.7c1.2,0,2.2,1,2.2,2.2c0,1.2-1,2.2-2.2,2.2h-81.9c-1.2,0-2.2-1-2.2-2.2c0-1.2,1-2.2,2.2-2.2
					H512.1z"/>
				<path fill="#5EC6CC" d="M563.5,106.7c1.2,0,2.2,1,2.2,2.2c0,1.2-1,2.2-2.2,2.2h-8.3c-1.2,0-2.2-1-2.2-2.2c0-1.2,1-2.2,2.2-2.2
					H563.5z"/>
				<path fill="#5EC6CC" d="M449.7,79.5c-0.4-1.1,0.1-2.4,1.2-2.8c1.1-0.4,2.4,0.1,2.8,1.2L499,190c0.4,1.1-0.1,2.4-1.2,2.8
					c-1.1,0.4-2.4-0.1-2.8-1.2L449.7,79.5z"/>
				<path fill="#5EC6CC" d="M520.3,127.5c0.4-1.1,1.7-1.6,2.8-1.2c1.1,0.4,1.6,1.7,1.2,2.8L499,191.6c-0.4,1.1-1.7,1.6-2.8,1.2
					c-1.1-0.4-1.6-1.7-1.2-2.8L520.3,127.5z"/>
				<path fill="#5EC6CC" d="M540.3,77.9c0.4-1.1,1.7-1.6,2.8-1.2c1.1,0.4,1.6,1.7,1.2,2.8l-3.5,8.6c-0.4,1.1-1.7,1.6-2.8,1.2
					c-1.1-0.4-1.6-1.7-1.2-2.8L540.3,77.9z"/>
				<path fill="#5EC6CC" d="M466.1,110.4c-0.9,0.8-2.2,0.8-3-0.1c-0.8-0.9-0.8-2.2,0.1-3l32.3-30.2c0.9-0.8,2.2-0.8,3,0.1
					c0.8,0.9,0.8,2.2-0.1,3L466.1,110.4z"/>
				<path fill="#5EC6CC" d="M520,97.2c0.9,0.8,0.9,2.2,0.1,3c-0.8,0.9-2.2,0.9-3,0.1l-21.5-20.1c-0.9-0.8-0.9-2.2-0.1-3
					c0.8-0.9,2.2-0.9,3-0.1L520,97.2z"/>
				<path fill="#5EC6CC" d="M535.6,95l4,8l8,4c1.1,0.5,1.5,1.8,1,2.9c-0.2,0.4-0.6,0.8-1,1l-8,4l-4,8c-0.5,1.1-1.8,1.5-2.9,1
					c-0.4-0.2-0.7-0.6-1-1l-4-8l-8-4c-1.1-0.5-1.5-1.8-1-2.9c0.2-0.4,0.6-0.7,1-1l8-4l4-8c0.5-1.1,1.8-1.5,2.9-1
					C535.1,94.2,535.4,94.6,535.6,95L535.6,95z M536.1,105.5l-2.4-4.8l-2.4,4.8c-0.2,0.4-0.5,0.7-1,1l-4.8,2.4l4.8,2.4
					c0.4,0.2,0.7,0.5,1,1l2.4,4.8l2.4-4.8c0.2-0.4,0.5-0.7,1-1l4.8-2.4l-4.8-2.4C536.6,106.2,536.3,105.9,536.1,105.5z"/>
			</g>
		</g>
	</g>
</g>
</svg>
