<?xml version="1.0" encoding="utf-8"?>
<!-- Generator: Adobe Illustrator 19.0.0, SVG Export Plug-In . SVG Version: 6.00 Build 0)  -->
<svg version="1.1" id="Capa_1" xmlns="http://www.w3.org/2000/svg" xmlns:xlink="http://www.w3.org/1999/xlink" x="0px" y="0px"
	 viewBox="132.8 32.2 195 195" enable-background="new 132.8 32.2 195 195" xml:space="preserve">
<circle fill="#D5EDED" cx="211.6" cy="126.4" r="65.3"/>
<g>
	<g>
		<path fill="#5EC6CC" d="M263.2,87.3c-0.4,0-0.7-0.1-1.1-0.3c-0.3-0.2-8.6-5.5-16.9,0c-0.7,0.4-1.6,0.4-2.2,0
			c-7.3-5.3-17.5,0.1-17.6,0.2c-0.5,0.3-1,0.3-1.6,0.1c-0.5-0.2-0.9-0.6-1.1-1.1c-3.7-9.4-1.3-10.8-0.5-11.3
			c0.8-0.5,1.9-0.6,3.6-0.8c4.6-0.5,9.2-1.3,10.4-5.3c1.2-3.8,2.8-6.2,4.9-7.1c1-0.5,2-0.5,2.8-0.3c0.7-0.2,1.7-0.2,2.8,0.3
			c2.1,0.9,3.7,3.3,4.9,7.1c1.2,4,5.9,4.8,10.4,5.3c1.7,0.2,2.8,0.3,3.6,0.8c0.8,0.5,3.2,1.9-0.5,11.3c-0.2,0.5-0.7,1-1.2,1.1
			C263.6,87.2,263.4,87.3,263.2,87.3z M235.3,80.7c2.9,0,6,0.6,8.9,2.4c7.4-4.2,14.5-2.1,17.9-0.5c0.6-1.9,1-3.6,1-4.5
			c-0.5-0.1-1.1-0.2-1.7-0.2c-4.1-0.4-11.6-1.2-13.8-8c-1.2-4-2.6-4.8-2.9-4.8c-0.3,0.1-0.6,0.1-0.9,0.1c-0.3,0-0.6,0-0.9-0.1
			c-0.3,0-1.7,0.8-2.9,4.8c-2.1,6.8-9.7,7.6-13.8,8c-0.5,0-1.2,0.1-1.7,0.2c0,0.9,0.5,2.7,1.1,4.6C227.8,81.8,231.4,80.7,235.3,80.7
			z"/>
		<path fill="#5EC6CC" d="M242.5,195.6c-4.6,0-8.8-0.2-12.6-0.5c-18-1.4-32.2-5.6-36.9-9.1c-0.6-0.5-0.9-1.2-0.7-2
			c7.8-33.2,22-52.2,31.4-64.8c6.9-9.3,9.9-13.6,7.3-16.8c-3.8-4.7-5.5-8.9-4.9-12.5c0.5-3.3,2.8-4.9,3.1-5c0.5-0.3,1-0.4,1.6-0.2
			c13.9,4.2,16.8,2.9,20.3,1.6c1.5-0.6,3.2-1.3,5.7-1.6c0.6-0.1,1.2,0.1,1.6,0.5c5,4.7,2.3,9.4-0.8,14.9c-0.3,0.5-0.6,1.1-0.9,1.7
			c-0.1,0.3,0,2,3.3,8.4c2.4,4.6,6,10.6,9.8,17c12,20,26.8,44.9,25,58.4c-0.1,0.7-0.6,1.3-1.2,1.6
			C274.8,193.7,256.9,195.6,242.5,195.6z M196.4,183.6c9.9,5.6,52.3,15,94.4,0.2c0.6-12.6-13.9-36.9-24.6-54.8
			c-11.3-18.9-15.1-25.8-13.2-29.2c0.3-0.6,0.7-1.2,1-1.7c3.1-5.5,3.9-7.5,2.2-9.5c-1.5,0.3-2.6,0.7-3.8,1.2
			c-3.9,1.6-7.5,3.1-21.8-1.1c-0.3,0.4-0.7,1-0.8,1.9c-0.2,1.7,0.3,4.7,4.1,9.3c4.7,5.7,0,12.1-7.1,21.6
			C217.7,133.8,204,152.1,196.4,183.6z"/>
		<path fill="#5EC6CC" d="M189.9,181.3c-0.3,0-0.7-0.1-1.1-0.3c-0.3-0.2-8.2-5.5-11.9-11c-0.3-0.5-0.4-1.1-0.2-1.7
			c6.2-17.7,48.2-57.5,50-59.3c0.8-0.7,2-0.7,2.8,0.1c0.7,0.8,0.7,2-0.1,2.8c-0.4,0.4-41.6,39.4-48.7,56.8
			c3.5,4.6,10.2,9.1,10.2,9.1c0.9,0.6,1.1,1.8,0.5,2.7C191.2,181,190.6,181.3,189.9,181.3z"/>
		<path fill="#5EC6CC" d="M300.1,181.3c-0.6,0-1.2-0.3-1.6-0.9c-0.6-0.9-0.3-2.1,0.5-2.7c0.1,0,6.8-4.5,10.2-9.1
			c-7.1-17.3-48.3-56.4-48.7-56.8c-0.8-0.7-0.8-2-0.1-2.8s2-0.8,2.8-0.1c1.8,1.7,43.8,41.5,50,59.3c0.2,0.6,0.1,1.2-0.2,1.7
			c-3.7,5.5-11.6,10.7-11.9,11C300.8,181.2,300.5,181.3,300.1,181.3z"/>
	</g>
</g>
</svg>
