<?xml version="1.0" encoding="utf-8"?>
<!-- Generator: Adobe Illustrator 19.0.0, SVG Export Plug-In . SVG Version: 6.00 Build 0)  -->
<svg version="1.1" id="Capa_1" xmlns="http://www.w3.org/2000/svg" xmlns:xlink="http://www.w3.org/1999/xlink" x="0px" y="0px"
	 viewBox="-222 224 54 54" style="enable-background:new -222 224 54 54;" xml:space="preserve">
<g>
	<path d="M-222,251c0,14.9,12.1,27,27,27s27-12.1,27-27s-12.1-27-27-27S-222,236.1-222,251z M-220,251c0-13.8,11.2-25,25-25
		s25,11.2,25,25s-11.2,25-25,25S-220,264.8-220,251z"/>
	<path d="M-202.5,249.8c-0.7,0.7-0.7,1.8,0,2.4l11.5,11.5c0.2,0.2,0.5,0.3,0.7,0.3c0.3,0,0.5-0.1,0.7-0.3c0.4-0.4,0.4-1,0-1.4
		l-11.3-11.3l11.3-11.3c0.4-0.4,0.4-1,0-1.4c-0.4-0.4-1-0.4-1.4,0L-202.5,249.8z"/>
</g>
</svg>
