<?xml version="1.0" encoding="utf-8"?>
<!-- Generator: Adobe Illustrator 19.0.0, SVG Export Plug-In . SVG Version: 6.00 Build 0)  -->
<svg version="1.1" id="Слой_1" xmlns="http://www.w3.org/2000/svg" xmlns:xlink="http://www.w3.org/1999/xlink" x="0px" y="0px"
	 viewBox="411.6 381 264.6 80.4" enable-background="new 411.6 381 264.6 80.4" xml:space="preserve">
<g id="Слой_x0020_1">
	<g id="_970173929824">
		<path fill="#333333" d="M463.2,460.1h2.3v1.4h-14.6v-1.4h2.9v-77.7h-2.9V381H463v1.4l0.1,53.1c0-0.6,0.3-1.2,0.9-1.6
			c0.6-0.5,1.7-0.7,3.3-0.7c1.4,0,2.6-0.2,3.4-0.7c0.9-0.5,1.5-1.6,1.9-3.4c0.4-1.8,0.7-4.5,0.8-8.1c0.1-3.6,0.2-8.6,0.2-14.8
			c0-6.2-0.3-10.9-0.8-14.1c-0.5-3.2-1.3-5.6-2.2-7c-1-1.5-2.1-2.3-3.4-2.4c-1.4-0.1-2.7-0.2-4.2-0.2V381c3.7,0,6.8,0.1,9.3,0.4
			c2.5,0.3,4.6,1.2,6.1,2.7c1.5,1.6,2.6,4.1,3.2,7.5c0.6,3.4,0.9,8.2,0.9,14.5c0,7-0.1,12.4-0.4,16.2c-0.3,3.8-0.9,6.7-1.9,8.5
			c-1,1.8-2.6,2.9-4.6,3.3c-2.1,0.4-5,0.6-8.7,0.6c-1.4,0-2.4,0.4-2.9,1.1s-0.9,1.9-0.9,3.5V460.1z M508.1,423.8
			c3.1,0.2,5.6,0.6,7.3,1.2c1.7,0.7,3,1.7,3.8,3.1c0.8,1.5,1.2,3.3,1.4,5.6c0.1,2.3,0.2,5.1,0.2,8.4c0.1,3.7,0.1,6.7,0,9
			c-0.1,2.3,0,4.1,0.2,5.5c0.2,1.3,0.6,2.2,1.2,2.7c0.6,0.5,1.7,0.7,3.2,0.7v1.5c-3.7,0-6.5-0.3-8.3-0.9c-1.9-0.6-3.2-1.6-4-3.1
			c-0.8-1.5-1.2-3.5-1.2-5.9c0-2.5,0-5.6,0-9.4c0-4.6-0.1-8.1-0.5-10.5c-0.3-2.4-0.8-4.2-1.4-5.2c-0.7-1.1-1.4-1.7-2.2-1.8
			c-0.9-0.1-1.8-0.2-2.7-0.2c-1.4,0-2.4,0.4-2.9,1.1c-0.6,0.8-0.9,1.9-0.9,3.5l0.1,30.9h2.3v1.5H489V460h2.9v-77.6H489V381h12.2v1.4
			v42.5c0-0.6,0.3-1.1,0.9-1.5c0.6-0.4,1.7-0.6,3.3-0.6c1.4,0,2.6-0.1,3.5-0.3c0.9-0.2,1.5-1.1,2-2.6c0.4-1.4,0.7-3.7,0.8-6.8
			c0.1-3.1,0.2-7.5,0.2-13.3c0-4.1-0.3-7.3-0.8-9.6c-0.5-2.3-1.3-4.1-2.3-5.2c-1-1.2-2.2-1.9-3.5-2.2c-1.3-0.3-2.7-0.5-4.1-0.5V381
			c3.7,0,6.8,0.2,9.3,0.6c2.6,0.4,4.6,1.2,6,2.5c1.5,1.3,2.6,3.2,3.2,5.7c0.7,2.5,1,5.8,1,10.1c0,4.6-0.1,8.4-0.2,11.5
			c-0.1,3.1-0.6,5.5-1.4,7.4c-0.8,1.8-2.1,3.1-3.8,3.9C513.6,423.4,511.1,423.8,508.1,423.8z M559.6,381v5h-1.5v-3.7h-14.6l0.1,37.6
			c0-0.8,0.3-1.4,0.9-1.8c0.6-0.4,1.7-0.7,3.3-0.7h5.5v-2.4h1.5v6.1h-1.5v-2.2h-6c-1.4,0-2.4,0.4-2.9,1.2c-0.6,0.8-0.9,1.9-0.9,3.4
			v36.5h14.5v-3.7h1.5v5h-28.3v-1.4h2.9v-77.7h-2.9V381H559.6z M599.2,381v5.6h-1.5v-4.3h-11.4l0.1,77.7h2.3v1.4h-14.6v-1.4h2.9
			v-77.7h-10.8v4.3h-1.5V381H599.2z M636.5,381v5.6H635v-4.3h-11.4l0.1,77.7h2.3v1.4h-14.6v-1.4h2.9v-77.7h-10.8v4.3H602V381H636.5z
			 M655.5,424.9l-11.9-42.5H641V381h13.6v1.4h-2.6l9.9,38.9l10.6-38.9h-2.4V381h6.3v1.4h-2.2l-11.4,40.7v37h2.4v1.4h-12.5v-1.4h2.9
			V424.9z"/>
		<path fill="#333333" d="M422,452.3c0,2.1,0.7,4.1,2.1,5.7l1.6,1.9h-14.1v1.5h29.1v-1.5h-3.7l1.6-1.9c1.4-1.7,2.1-3.7,2.1-5.7
			c0-5-4.2-9.1-9.4-9.1C426.2,443.2,422,447.3,422,452.3z M439.1,452.3c0,3.9-2.7,7-6.7,7.5h-2c-4-0.5-6.6-3.7-6.6-7.5
			c0-4.3,3.3-7.5,7.6-7.5C435.7,444.8,439.1,448,439.1,452.3z M421.3,430.9c0.2,1.8,0.8,3.5,2,4.8c1.1,1.2,2.5,2,2.5,2h-4.5v1.3
			h19.5v-1.3h-11.2c-3.5-0.7-6.5-3.4-6.9-6.9H421.3z M421.4,427.2h19.5v-1.6h-19.5V427.2z M415.4,426.3c0-0.5-0.4-0.9-0.9-0.9
			c-0.5,0-0.9,0.4-0.9,0.9c0,0.5,0.4,0.9,0.9,0.9C415,427.2,415.4,426.8,415.4,426.3z M422,412.7c0,5,4.2,9.1,9.4,9.1
			c5.2,0,9.4-4.1,9.4-9.1c0-2.1-0.7-4.1-2.1-5.7l-1.6-2h3.7v-1.5h-29.1v1.5h14.1l-1.6,2C422.7,408.6,422,410.6,422,412.7z
			 M439.1,412.7c0,4.3-3.4,7.5-7.7,7.5c-4.4,0-7.6-3.3-7.6-7.5c0-3.9,2.6-7.1,6.6-7.5h2C436.3,405.6,439.1,408.8,439.1,412.7z
			 M421.1,390.7c0,5.2,4.4,9.5,9.8,9.5s9.8-4.3,9.8-9.5c0-2.4-1-4.8-2.6-6.5l0,2.3c0.7,1.2,1.2,2.7,1.2,4.2c0,3.6-2.5,7.4-7.6,8.1
			v-17.6C425.7,381.3,421.1,385.3,421.1,390.7z M430.2,398.7c-5.4-0.8-7.7-4.5-7.7-8.1c0-3.5,2.6-6.9,7.7-7.9V398.7z"/>
	</g>
</g>
</svg>
